<svg width="340" height="250" xmlns="http://www.w3.org/2000/svg" xmlns:svg="http://www.w3.org/2000/svg"
    preserveAspectRatio="xMidYMid meet" version="1.0">
    <!---->
    <g class="layer">
        <title>Layer 1</title>
        <g class="icon-text-wrapper icon-svg-group iconsvg" fill="#333" id="svg_10">
            <g class="iconsvg-imagesvg icon_container" fill="#333" id="svg_11" transform="translate(0 0)">
                <rect class="image-rect" fill="#333" fill-opacity="0" height="100" id="svg_12" stroke-width="2"
                    width="100" x="134" y="75" />
                <g id="svg_3">
                    <svg class="image-svg-svg bn" height="100" id="svg_2" viewBox="0 0 60 59.94904331318379" width="100"
                        x="134" y="75">
                        <g id="svg_39" mask="url(#svg_9)">
                            <g id="svg_43">
                                <svg filter="url(#svg_50)" height="59.95" id="svg_49"
                                    viewBox="0.00147 -0.00415 416.78745 416.43256" width="60" x="0"
                                    xmlns="http://www.w3.org/2000/svg" y="0">
                                    <g id="svg_51" transform="scale(1, 1) skewX(0)">
                                        <g id="svg_52">
                                            <path
                                                d="m415.65,162.72c-1.21,-20.68 -3.53,-41.15 -9.32,-61.09c-13.62,-46.83 -44.09,-76.88 -90.72,-90.72c-29.06,-8.63 -59,-9.79 -89,-10.65c-19.47,-0.56 -39,-0.2 -58.44,0.8c-22.68,1.17 -45.17,3.44 -67.06,9.94c-43.41,12.81 -73.36,40 -88.27,83.11c-9,26 -11.62,53 -12.31,80.17c-0.67,26.79 -0.92,53.62 0.58,80.43c1.16,20.7 3.6,41.12 9.35,61.08c10.93,38 33.73,66.06 69.8,82.8c16,7.43 33,11.3 50.41,13.89c25.8,3.84 51.76,4 80.91,3.94c12.32,-0.36 27.79,0.05 43.29,-0.9c20.68,-1.28 41.14,-3.58 61.07,-9.4c43.93,-12.84 73.71,-40.65 88.46,-84.19c8.65,-25.53 11.24,-52.07 11.87,-78.74s0.95,-53.66 -0.62,-80.47z"
                                                id="svg_53" />
                                        </g>
                                    </g>
                                    <defs>
                                        <filter id="svg_50">
                                            <feColorMatrix type="matrix"
                                                values="0 0 0 0 0.19921875  0 0 0 0 0.19921875  0 0 0 0 0.19921875  0 0 0 1 0" />
                                        </filter>
                                    </defs>
                                </svg>
                            </g>
                            <g filter="url(#colors1377067651)" id="svg_40">
                                <svg class="image-svg-letter" height="44.96" id="svg_54"
                                    viewBox="0 0 94.9536 40.09660366586538" width="45" x="7.5"
                                    xmlns="http://www.w3.org/2000/svg" xmlns:xlink="http://www.w3.org/1999/xlink"
                                    y="7.49">
                                    <path
                                        d="m31.68,-8.64l0,0q0.14,-0.43 0.18,-1.44q0.04,-1.01 0,-2.12q-0.04,-1.12 -0.04,-2.2q0,-1.08 0,-1.73l0,0q0.15,-2.66 0.15,-5.25q0,-2.6 0.07,-5.26l0,0q0.07,-1.94 0.11,-3.85q0.03,-1.91 0.03,-3.85l0,0q0,-0.87 -0.82,-1.23q-0.83,-0.36 -1.77,-0.47q-0.93,-0.1 -1.62,-0.21q-0.68,-0.11 -0.32,-0.47l0,0l0.21,-0.22q0.15,-0.07 1.91,-0.43q1.77,-0.36 3.89,-0.68q2.12,-0.33 4.03,-0.61q1.91,-0.29 2.34,-0.29l0,0q0.58,0 1.05,0.07q0.46,0.07 1.04,0.07l0,0q0.58,0 0.58,0.65l0,0l0,35.78q0,0.72 0.61,0.76q0.61,0.04 1.37,0q0.75,-0.04 1.47,0.04q0.72,0.07 0.94,0.93l0,0q-0.22,0.22 -0.29,0.22l0,0q-1.66,0.5 -3.42,0.72q-1.76,0.21 -3.6,0.29q-1.84,0.07 -3.67,0.03q-1.84,-0.03 -3.49,-0.03l0,0q-0.72,0 -0.72,-0.72l0,0q0,-2.16 -0.04,-4.25q-0.04,-2.09 -0.18,-4.25zm-1.51,3.31l0,0q-1.51,1.3 -2.85,2.38q-1.33,1.08 -2.77,1.83q-1.44,0.76 -3.06,1.19q-1.62,0.43 -3.71,0.43l0,0q-2.08,0 -3.99,-0.57q-1.91,-0.58 -3.39,-1.73q-1.47,-1.15 -2.34,-2.84q-0.86,-1.7 -0.86,-4l0,0l0,-25.92q0,-0.65 -0.76,-0.86q-0.75,-0.22 -1.65,-0.33q-0.9,-0.11 -1.66,-0.25q-0.75,-0.14 -0.75,-0.72l0,0q0,-0.43 0.57,-0.58l0,0q0.58,-0.21 2.67,-0.54q2.08,-0.32 4.46,-0.61q2.38,-0.29 4.43,-0.47q2.05,-0.18 2.55,-0.1l0,0q0.36,0.07 0.54,0.18q0.18,0.1 0.18,0.54l0,0l0,27.72q0,2.66 1.73,4.46l0,0q0.87,0.86 1.87,1.3q1.01,0.43 2.13,0.5q1.11,0.07 2.27,-0.18q1.15,-0.25 2.16,-0.68l0,0q0.57,-0.29 1,-0.58q0.44,-0.29 0.94,-0.58l0,0q0.79,-0.36 0.65,0.15q-0.15,0.5 -0.36,0.86zm37.87,2.88l0.14,0.29q0.36,0.14 0.98,0.25q0.61,0.11 1.22,0.22q0.61,0.11 1.04,0.25q0.44,0.14 0.44,0.43l0,0q0,0.51 -0.44,0.51l0,0l-18.21,0q-0.58,0 -0.58,-0.58l0,0q0,-0.58 0.69,-0.61q0.68,-0.04 1.47,0.03q0.79,0.08 1.48,0q0.68,-0.07 0.68,-0.72l0,0l0,-31.24q0,-0.72 -0.72,-0.72l0,0l-3.89,0q-0.28,0 -0.28,-0.18q0,-0.18 0,-0.33l0,0q0.14,-0.29 0.28,-0.36l0,0q0.08,-0.21 0.44,-0.36l0,0l12.74,-3.81q1.01,-0.29 1.51,0.36q0.51,0.64 0.69,1.65q0.18,1.01 0.1,2.09q-0.07,1.08 -0.14,1.66l0,0q-0.07,0.36 0.07,0.86q0.15,0.5 0.29,0.79l0,0l0,29.52zm2.09,-30.31l0,0q-0.58,0.14 -0.76,-0.11q-0.18,-0.25 0.11,-0.75l0,0q0.07,-0.08 0.72,-0.72q0.65,-0.65 0.79,-0.8l0,0q2.45,-2.3 4.75,-3.27q2.31,-0.97 5.69,-0.97l0,0q2.09,0 4.14,0.64q2.05,0.65 3.64,1.88q1.58,1.22 2.55,3.02q0.98,1.8 0.98,4.1l0,0l0,27.36q0,0.51 0.64,0.58q0.65,0.07 1.44,0.07q0.8,0 1.52,0.11q0.72,0.11 0.93,0.54l0,0q0.15,0.36 -0.07,0.47q-0.22,0.11 -0.5,0.11l0,0l-18.51,0q-0.57,0 -0.57,-0.58l0,0q0,-0.58 0.68,-0.61q0.68,-0.04 1.48,0.03q0.79,0.08 1.47,0q0.69,-0.07 0.69,-0.72l0,0l0,-27.36q0,-2.01 -0.8,-3.16q-0.79,-1.16 -2.05,-1.66q-1.26,-0.5 -2.81,-0.4q-1.54,0.11 -3.13,0.62l0,0q-0.43,0.14 -0.9,0.36q-0.47,0.21 -0.9,0.5l0,0l-0.86,0.43q-0.22,0.22 -0.36,0.29z"
                                        id="svg_55" transform="translate(-2.3760000000000003 39.47261538461538)" />
                                </svg>
                            </g>
                        </g>
                        <mask id="svg_9">
                            <g fill="white" id="svg_34">
                                <svg height="59.95" id="svg_56" viewBox="0.00147 -0.00415 416.78745 416.43256"
                                    width="60" x="0" xmlns="http://www.w3.org/2000/svg" y="0">
                                    <g id="svg_57" transform="scale(1, 1) skewX(0)">
                                        <g id="svg_58">
                                            <path
                                                d="m415.65,162.72c-1.21,-20.68 -3.53,-41.15 -9.32,-61.09c-13.62,-46.83 -44.09,-76.88 -90.72,-90.72c-29.06,-8.63 -59,-9.79 -89,-10.65c-19.47,-0.56 -39,-0.2 -58.44,0.8c-22.68,1.17 -45.17,3.44 -67.06,9.94c-43.41,12.81 -73.36,40 -88.27,83.11c-9,26 -11.62,53 -12.31,80.17c-0.67,26.79 -0.92,53.62 0.58,80.43c1.16,20.7 3.6,41.12 9.35,61.08c10.93,38 33.73,66.06 69.8,82.8c16,7.43 33,11.3 50.41,13.89c25.8,3.84 51.76,4 80.91,3.94c12.32,-0.36 27.79,0.05 43.29,-0.9c20.68,-1.28 41.14,-3.58 61.07,-9.4c43.93,-12.84 73.71,-40.65 88.46,-84.19c8.65,-25.53 11.24,-52.07 11.87,-78.74s0.95,-53.66 -0.62,-80.47z"
                                                id="svg_59" />
                                        </g>
                                    </g>
                                </svg>
                            </g>
                            <g fill="black" id="svg_13">
                                <svg class="image-svg-letter" height="44.96" id="svg_60"
                                    viewBox="0 0 94.9536 40.09660366586538" width="45" x="7.5"
                                    xmlns="http://www.w3.org/2000/svg" xmlns:xlink="http://www.w3.org/1999/xlink"
                                    y="7.49">
                                    <path
                                        d="m31.68,-8.64l0,0q0.14,-0.43 0.18,-1.44q0.04,-1.01 0,-2.12q-0.04,-1.12 -0.04,-2.2q0,-1.08 0,-1.73l0,0q0.15,-2.66 0.15,-5.25q0,-2.6 0.07,-5.26l0,0q0.07,-1.94 0.11,-3.85q0.03,-1.91 0.03,-3.85l0,0q0,-0.87 -0.82,-1.23q-0.83,-0.36 -1.77,-0.47q-0.93,-0.1 -1.62,-0.21q-0.68,-0.11 -0.32,-0.47l0,0l0.21,-0.22q0.15,-0.07 1.91,-0.43q1.77,-0.36 3.89,-0.68q2.12,-0.33 4.03,-0.61q1.91,-0.29 2.34,-0.29l0,0q0.58,0 1.05,0.07q0.46,0.07 1.04,0.07l0,0q0.58,0 0.58,0.65l0,0l0,35.78q0,0.72 0.61,0.76q0.61,0.04 1.37,0q0.75,-0.04 1.47,0.04q0.72,0.07 0.94,0.93l0,0q-0.22,0.22 -0.29,0.22l0,0q-1.66,0.5 -3.42,0.72q-1.76,0.21 -3.6,0.29q-1.84,0.07 -3.67,0.03q-1.84,-0.03 -3.49,-0.03l0,0q-0.72,0 -0.72,-0.72l0,0q0,-2.16 -0.04,-4.25q-0.04,-2.09 -0.18,-4.25zm-1.51,3.31l0,0q-1.51,1.3 -2.85,2.38q-1.33,1.08 -2.77,1.83q-1.44,0.76 -3.06,1.19q-1.62,0.43 -3.71,0.43l0,0q-2.08,0 -3.99,-0.57q-1.91,-0.58 -3.39,-1.73q-1.47,-1.15 -2.34,-2.84q-0.86,-1.7 -0.86,-4l0,0l0,-25.92q0,-0.65 -0.76,-0.86q-0.75,-0.22 -1.65,-0.33q-0.9,-0.11 -1.66,-0.25q-0.75,-0.14 -0.75,-0.72l0,0q0,-0.43 0.57,-0.58l0,0q0.58,-0.21 2.67,-0.54q2.08,-0.32 4.46,-0.61q2.38,-0.29 4.43,-0.47q2.05,-0.18 2.55,-0.1l0,0q0.36,0.07 0.54,0.18q0.18,0.1 0.18,0.54l0,0l0,27.72q0,2.66 1.73,4.46l0,0q0.87,0.86 1.87,1.3q1.01,0.43 2.13,0.5q1.11,0.07 2.27,-0.18q1.15,-0.25 2.16,-0.68l0,0q0.57,-0.29 1,-0.58q0.44,-0.29 0.94,-0.58l0,0q0.79,-0.36 0.65,0.15q-0.15,0.5 -0.36,0.86zm37.87,2.88l0.14,0.29q0.36,0.14 0.98,0.25q0.61,0.11 1.22,0.22q0.61,0.11 1.04,0.25q0.44,0.14 0.44,0.43l0,0q0,0.51 -0.44,0.51l0,0l-18.21,0q-0.58,0 -0.58,-0.58l0,0q0,-0.58 0.69,-0.61q0.68,-0.04 1.47,0.03q0.79,0.08 1.48,0q0.68,-0.07 0.68,-0.72l0,0l0,-31.24q0,-0.72 -0.72,-0.72l0,0l-3.89,0q-0.28,0 -0.28,-0.18q0,-0.18 0,-0.33l0,0q0.14,-0.29 0.28,-0.36l0,0q0.08,-0.21 0.44,-0.36l0,0l12.74,-3.81q1.01,-0.29 1.51,0.36q0.51,0.64 0.69,1.65q0.18,1.01 0.1,2.09q-0.07,1.08 -0.14,1.66l0,0q-0.07,0.36 0.07,0.86q0.15,0.5 0.29,0.79l0,0l0,29.52zm2.09,-30.31l0,0q-0.58,0.14 -0.76,-0.11q-0.18,-0.25 0.11,-0.75l0,0q0.07,-0.08 0.72,-0.72q0.65,-0.65 0.79,-0.8l0,0q2.45,-2.3 4.75,-3.27q2.31,-0.97 5.69,-0.97l0,0q2.09,0 4.14,0.64q2.05,0.65 3.64,1.88q1.58,1.22 2.55,3.02q0.98,1.8 0.98,4.1l0,0l0,27.36q0,0.51 0.64,0.58q0.65,0.07 1.44,0.07q0.8,0 1.52,0.11q0.72,0.11 0.93,0.54l0,0q0.15,0.36 -0.07,0.47q-0.22,0.11 -0.5,0.11l0,0l-18.51,0q-0.57,0 -0.57,-0.58l0,0q0,-0.58 0.68,-0.61q0.68,-0.04 1.48,0.03q0.79,0.08 1.47,0q0.69,-0.07 0.69,-0.72l0,0l0,-27.36q0,-2.01 -0.8,-3.16q-0.79,-1.16 -2.05,-1.66q-1.26,-0.5 -2.81,-0.4q-1.54,0.11 -3.13,0.62l0,0q-0.43,0.14 -0.9,0.36q-0.47,0.21 -0.9,0.5l0,0l-0.86,0.43q-0.22,0.22 -0.36,0.29z"
                                        id="svg_61" transform="translate(-2.3760000000000003 39.47261538461538)" />
                                </svg>
                            </g>
                        </mask>
                    </svg>
                </g>
                <defs transform="translate(19 -8) translate(-9 23) translate(4 -15) translate(120 75)">
                    <filter id="colors1377067651">
                        <feColorMatrix class="icon-fecolormatrix" type="matrix"
                            values="0 0 0 0 0.19921875  0 0 0 0 0.19921875  0 0 0 0 0.19921875  0 0 0 1 0" />
                    </filter>
                </defs>
            </g>
            <g id="svg_27" transform="translate(50 107)">
                <g class="tp-name iconsvg-namesvg" data-gra="path-name" id="svg_28">
                    <g id="svg_29" transform="translate(120 75) scale(1 1)">
                        <g id="svg_30">
                            <path id="svg_31" transform="translate(0 0)" />
                        </g>
                        <!---->
                        <!---->
                        <!---->
                        <!---->
                        <!---->
                        <!---->
                        <!---->
                    </g>
                </g>
                <!---->
            </g>
        </g>
    </g>
</svg>